<svg width="1024" height="1024" viewBox="0 0 1024 1024" fill="none" xmlns="http://www.w3.org/2000/svg">
<rect width="1024" height="1024" rx="12" fill="#010101"/>
<path d="M240.304 252.378C240.304 245.709 245.71 240.303 252.379 240.303H771.624C778.294 240.303 783.7 245.709 783.7 252.378V771.624C783.7 778.293 778.294 783.699 771.624 783.699H252.379C245.71 783.699 240.304 778.293 240.304 771.624V252.378Z" fill="white"/>
<path d="M240.304 240.301C311.664 240.301 382.325 254.356 448.252 281.664C514.18 308.973 574.084 348.999 624.543 399.458C675.002 449.917 715.028 509.821 742.336 575.748C769.645 641.676 783.7 712.337 783.7 783.697L240.304 783.697L240.304 240.301Z" fill="white"/>
<path fill-rule="evenodd" clip-rule="evenodd" d="M192 832L192 192H240.302C318.005 192 394.947 207.305 466.735 237.04C538.523 266.776 603.751 310.36 658.696 365.304C713.64 420.249 757.224 485.477 786.96 557.265C816.695 629.053 832 705.995 832 783.698V832L192 832ZM288.604 735.396L733.034 735.396C728.285 686.947 716.407 639.373 697.709 594.234C672.829 534.166 636.36 479.587 590.386 433.614C544.413 387.64 489.834 351.171 429.766 326.291C384.627 307.593 337.053 295.715 288.604 290.966V735.396Z" fill="#010101"/>
</svg>
