<svg width="200" height="200" viewBox="0 0 200 200" fill="none" xmlns="http://www.w3.org/2000/svg">
<circle cx="100" cy="100" r="100" fill="url(#paint0_linear_63_444)"/>
<path d="M100.621 158.333C89.0217 158.316 77.5898 155.566 67.2518 150.306C56.9139 145.046 47.9608 137.424 41.1184 128.058C40.2074 126.807 39.8305 125.246 40.0708 123.717C40.311 122.189 41.1486 120.818 42.3993 119.907C43.6501 118.996 45.2115 118.619 46.7401 118.859C48.2687 119.099 49.6393 119.937 50.5503 121.188C56.3161 129.124 63.8855 135.575 72.6346 140.011C81.3836 144.446 91.0616 146.738 100.871 146.699C110.68 146.659 120.339 144.288 129.052 139.782C137.764 135.275 145.281 128.763 150.982 120.78C151.878 119.522 153.237 118.671 154.76 118.414C156.283 118.157 157.846 118.516 159.104 119.412C160.363 120.308 161.214 121.667 161.47 123.19C161.727 124.713 161.368 126.276 160.472 127.534C153.655 137.048 144.672 144.803 134.264 150.158C123.857 155.514 112.325 158.316 100.621 158.333Z" fill="black"/>
<defs>
<linearGradient id="paint0_linear_63_444" x1="100" y1="0" x2="100" y2="200" gradientUnits="userSpaceOnUse">
<stop stop-color="#F62198"/>
<stop offset="1" stop-color="#C5008D"/>
</linearGradient>
</defs>
</svg>
