<svg width="48" height="48" viewBox="0 0 48 48" fill="none" xmlns="http://www.w3.org/2000/svg">
<path d="M21.9473 25.0806C21.9048 25.6053 21.7106 26.1063 21.3882 26.5224C21.0658 26.9385 20.6293 27.2518 20.1318 27.4239C19.6344 27.5961 19.0976 27.6197 18.587 27.4919C18.0763 27.3641 17.6139 27.0904 17.2562 26.7042C16.8986 26.3181 16.661 25.8361 16.5727 25.3172C16.4843 24.7983 16.5489 24.2649 16.7586 23.782C16.9683 23.2992 17.3141 22.8879 17.7536 22.5983C18.1932 22.3087 18.7075 22.1533 19.2339 22.1512C19.9822 22.1799 20.6884 22.5047 21.1972 23.054C21.706 23.6034 21.9758 24.3324 21.9473 25.0806ZM31.6001 25.0806C31.5576 25.6063 31.3626 26.1082 31.0392 26.5247C30.7157 26.9413 30.2777 27.2545 29.779 27.4259C29.2802 27.5973 28.7422 27.6195 28.231 27.4897C27.7198 27.36 27.2576 27.0839 26.9009 26.6954C26.5442 26.3069 26.3086 25.8228 26.223 25.3024C26.1373 24.782 26.2053 24.2479 26.4187 23.7655C26.632 23.2832 26.9814 22.8736 27.424 22.5868C27.8667 22.3001 28.3833 22.1487 28.9107 22.1512C29.655 22.1854 30.3554 22.5127 30.8592 23.0615C31.3631 23.6104 31.6294 24.3362 31.6001 25.0806Z" fill="#f62198"/>
<path d="M40.9644 7.02339C37.037 3.09882 31.8705 0.657336 26.3449 0.114866C20.8193 -0.427604 15.2765 0.962505 10.6609 4.04836C6.0453 7.13422 2.64236 11.7249 1.03186 17.0384C-0.578643 22.3518 -0.297084 28.0593 1.82857 33.1884C3.95422 38.3176 7.79247 42.5511 12.6894 45.1676C17.5863 47.7842 23.239 48.6221 28.6844 47.5384C34.1297 46.4547 39.0309 43.5165 42.553 39.2245C46.075 34.9324 48 29.552 47.9999 23.9998C48.0033 20.8462 47.3835 17.723 46.1761 14.8096C44.9688 11.8962 43.1976 9.25014 40.9644 7.02339ZM31.5517 34.5171C31.5517 34.5171 30.5913 33.3645 29.7989 32.356C31.7098 31.9113 33.4022 30.8057 34.5772 29.2345C33.6302 29.8596 32.6152 30.3752 31.5517 30.7712C30.3185 31.2986 29.0297 31.6853 27.7098 31.9238C25.4373 32.3315 23.109 32.3152 20.8424 31.8758C19.5125 31.6253 18.2099 31.2474 16.9525 30.7472C16.2941 30.4917 15.6525 30.195 15.0315 29.8588C14.9355 29.7867 14.8634 29.7627 14.7914 29.7147C14.7483 29.6961 14.7079 29.6719 14.6713 29.6427C14.2631 29.4025 13.999 29.2345 13.951 29.2104C15.083 30.7453 16.7124 31.8401 18.5613 32.308C17.7689 33.3165 16.8084 34.5171 16.8084 34.5171C15.2326 34.5571 13.6711 34.2102 12.2604 33.507C10.8497 32.8037 9.63288 31.7655 8.71635 30.4831C8.80327 25.1138 10.1088 19.8344 12.5343 15.0434C14.6692 13.3701 17.269 12.3973 19.978 12.258L20.2421 12.5702C17.7049 13.2041 15.3366 14.3841 13.3026 16.0279C13.4227 15.9799 13.975 15.6917 14.8394 15.2835C16.7432 14.421 18.7675 13.8541 20.8424 13.6027C20.993 13.5748 21.1455 13.5587 21.2986 13.5546C23.0749 13.3208 24.8731 13.3047 26.6533 13.5066C29.4403 13.8269 32.1392 14.6831 34.6013 16.0279C32.666 14.4669 30.4246 13.3298 28.022 12.6902L28.4062 12.258C31.1151 12.3973 33.7149 13.3701 35.8499 15.0434C38.2615 19.8384 39.5584 25.1164 39.6438 30.4831C38.7272 31.7655 37.5104 32.8037 36.0997 33.507C34.689 34.2102 33.1275 34.5571 31.5517 34.5171Z" fill="#f62198"/>
</svg>
