<svg width="48" height="48" viewBox="0 0 48 48" fill="none" xmlns="http://www.w3.org/2000/svg">
<path d="M25.0597 0.0399995C27.6797 0 30.2797 0.0199997 32.8796 0C33.0396 3.05996 34.1396 6.17992 36.3796 8.3399C38.6196 10.5599 41.7795 11.5799 44.8595 11.9199V19.9798C41.9795 19.8798 39.0796 19.2798 36.4596 18.0398C35.3196 17.5198 34.2596 16.8598 33.2196 16.1798C33.1996 22.0197 33.2396 27.8597 33.1796 33.6796C33.0196 36.4795 32.0996 39.2595 30.4797 41.5595C27.8597 45.3994 23.3198 47.8994 18.6598 47.9794C15.7998 48.1394 12.9399 47.3594 10.4999 45.9194C6.45997 43.5395 3.62 39.1795 3.20001 34.4996C3.16001 33.4996 3.14001 32.4996 3.18001 31.5196C3.54 27.7197 5.41998 24.0797 8.33994 21.5997C11.6599 18.7198 16.2998 17.3398 20.6398 18.1598C20.6798 21.1197 20.5598 24.0797 20.5598 27.0397C18.5798 26.3997 16.2598 26.5797 14.5199 27.7797C13.2599 28.5996 12.2999 29.8596 11.7999 31.2796C11.3799 32.2996 11.4999 33.4196 11.5199 34.4996C11.9999 37.7795 15.1599 40.5395 18.5198 40.2395C20.7598 40.2195 22.8998 38.9195 24.0597 37.0195C24.4397 36.3595 24.8597 35.6796 24.8797 34.8996C25.0797 31.3196 24.9997 27.7597 25.0197 24.1797C25.0397 16.1198 24.9997 8.0799 25.0597 0.0399995Z" fill="#F62198"/>
</svg>
