<svg width="48" height="48" viewBox="0 0 48 48" fill="none" xmlns="http://www.w3.org/2000/svg">
<circle cx="24" cy="24" r="24" fill="#f62198"/>
<path d="M24.1491 37.9999C21.3653 37.9958 18.6216 37.3358 16.1405 36.0734C13.6594 34.811 11.5107 32.9817 9.86852 30.7339C9.64988 30.4337 9.55943 30.0589 9.61708 29.6921C9.67473 29.3252 9.87576 28.9963 10.1759 28.7776C10.4761 28.559 10.8509 28.4685 11.2177 28.5262C11.5846 28.5838 11.9135 28.7849 12.1322 29.085C13.516 30.9896 15.3326 32.538 17.4324 33.6025C19.5322 34.667 21.8549 35.2172 24.2091 35.2076C26.5632 35.198 28.8814 34.6291 30.9725 33.5475C33.0636 32.466 34.8676 30.903 36.2359 28.9872C36.4508 28.6852 36.7769 28.4809 37.1425 28.4193C37.508 28.3577 37.8831 28.4439 38.1851 28.6588C38.4872 28.8738 38.6914 29.1999 38.753 29.5655C38.8146 29.931 38.7284 30.3061 38.5135 30.6081C36.8773 32.8914 34.7213 34.7526 32.2235 36.0379C29.7258 37.3232 26.9581 37.9957 24.1491 37.9999Z" fill="black"/>
</svg>
