<svg width="48" height="48" viewBox="0 0 48 48" fill="none" xmlns="http://www.w3.org/2000/svg">
<path d="M0 24.6411C0 35.4043 6.71936 44.5553 16.0804 47.912C17.3396 48.2366 17.1467 47.3177 17.1467 46.6904V42.4203C9.87006 43.2952 9.57535 38.3483 9.08238 37.5229C8.09109 35.7895 5.76557 35.3493 6.4568 34.5239C8.11788 33.649 9.80576 34.744 11.7562 37.7155C13.1708 39.867 15.9303 39.5038 17.3342 39.1462C17.6397 37.853 18.2934 36.6975 19.1936 35.795C11.6544 34.4083 8.50904 29.6815 8.50904 24.0578C8.50904 21.3339 9.38781 18.8247 11.1025 16.8052C10.0094 13.4706 11.2043 10.6202 11.365 10.1965C14.4836 9.91035 17.7147 12.4856 17.9719 12.6892C19.7455 12.1995 21.7656 11.9353 24.0214 11.9353C26.2934 11.9353 28.3242 12.205 30.1031 12.7002C30.7086 12.227 33.7093 10.0149 36.6082 10.2845C36.7636 10.7082 37.9317 13.4926 36.9029 16.7832C38.6443 18.8082 39.5285 21.3394 39.5285 24.0688C39.5285 29.698 36.367 34.4304 28.8011 35.8005C30.0603 37.0827 30.8426 38.8545 30.8426 40.8135V47.015C30.8855 47.5103 30.8426 48 31.6517 48C41.1574 44.7259 48 35.5034 48 24.6466C48 11.0274 37.2512 2.0585e-06 24 2.0585e-06C10.7381 -0.00550064 0 11.0219 0 24.6411Z" fill="#f62198"/>
</svg>
