<svg width="48" height="39" viewBox="0 0 48 39" fill="none" xmlns="http://www.w3.org/2000/svg">
<path d="M48 4.60274C46.2466 5.26027 44.274 5.91781 42.3014 6.13699C44.274 4.82192 45.8082 3.06849 46.6849 0.657534C44.7123 1.75342 42.7397 2.63014 40.5479 3.06849C38.7945 1.09589 36.1644 0 33.3151 0C27.8356 0 23.4521 4.38356 23.4521 9.86301C23.4521 10.5205 23.4521 11.3973 23.6712 12.0548C15.5616 11.6164 8.32877 7.67123 3.50685 1.75342C2.63014 3.28767 2.19178 5.0411 2.19178 6.79452C2.19178 10.3014 3.94521 13.1507 6.57534 14.9041C5.0411 14.9041 3.50685 14.4658 2.19178 13.589V13.8082C2.19178 18.6301 5.47945 22.5753 10.0822 23.4521C9.20548 23.6712 8.32877 23.8904 7.45205 23.8904C6.79452 23.8904 6.13699 23.8904 5.69863 23.6712C6.23252 25.6391 7.40463 27.374 9.03103 28.6037C10.6574 29.8334 12.6461 30.4883 14.6849 30.4658C11.3973 33.0959 7.0137 34.6301 2.41096 34.6301C1.53425 34.6301 0.876712 34.6301 0 34.411C4.38356 37.2603 9.42466 38.7945 15.1233 38.7945C33.0959 38.7945 42.9589 23.8904 42.9589 10.9589V9.64384C45.1507 8.32877 46.6849 6.57534 48 4.60274Z" fill="#4C4C4C"/>
</svg>
