<svg width="27" height="32" viewBox="0 0 27 32" fill="none" xmlns="http://www.w3.org/2000/svg">
<path d="M26.0557 23.4543C26.0155 23.5763 25.3871 25.768 23.8433 28.0217C22.5071 29.9657 21.1254 31.9255 18.9431 31.9599C16.7971 31.9976 16.1104 30.6794 13.6602 30.6794C11.2131 30.6794 10.4439 31.9255 8.4157 31.9976C6.31907 32.0834 4.70571 29.874 3.36445 27.9395C0.623236 23.9766 -1.48743 16.7095 1.34333 11.8394C2.73606 9.40269 5.23943 7.85379 7.96554 7.81148C10.0199 7.77264 11.9745 9.20313 13.2223 9.20313C14.5041 9.20313 16.8686 7.47222 19.363 7.73118C20.4074 7.77569 23.3288 8.16781 25.211 10.8958C25.0629 10.9966 21.7155 12.9719 21.7528 16.9923C21.8031 21.8459 26.0104 23.4378 26.0557 23.4543ZM17.7307 5.13136C18.8556 3.75926 19.5947 1.87312 19.4002 0C17.7942 0.0629899 15.8374 1.06658 14.6744 2.4306C13.6461 3.6206 12.7398 5.53611 12.9926 7.38747C14.7771 7.49587 16.6119 6.45298 17.7307 5.13136Z" fill="white"/>
</svg>
